<svg xmlns="http://www.w3.org/2000/svg" xmlns:xlink="http://www.w3.org/1999/xlink" width="159.703" height="104.999" viewBox="0 0 159.703 104.999"><defs><style>.a{fill:none;}.b{clip-path:url(#a);}.c{fill:url(#b);}.d{clip-path:url(#c);}.e{fill:url(#d);}.f{fill:#00eab6;}.g{clip-path:url(#e);}.h{fill:url(#f);}.i{clip-path:url(#g);}.j{fill:url(#h);}.k{clip-path:url(#i);}.l{fill:url(#j);}</style><clipPath id="a"><path class="a" d="M298.355-1003.172l-1.66.342v51.38l30.922-6.377v-8.084L305-961.247v-36.609a5.248,5.248,0,0,0-1.957-4.318h0a5.16,5.16,0,0,0-3.3-1.147h0a6.865,6.865,0,0,0-1.388.149"/></clipPath><linearGradient id="b" x1="0.793" y1="0.221" x2="0.907" y2="0.221" gradientUnits="objectBoundingBox"><stop offset="0" stop-color="#0083d6"/><stop offset="0.1" stop-color="#0082d6"/><stop offset="0.2" stop-color="#0081d6"/><stop offset="0.3" stop-color="#007ed3"/><stop offset="0.4" stop-color="#0077cd"/><stop offset="0.5" stop-color="#006bc4"/><stop offset="0.6" stop-color="#0058b5"/><stop offset="0.7" stop-color="#003d9f"/><stop offset="0.8" stop-color="#001881"/><stop offset="0.9" stop-color="#00145f"/><stop offset="1" stop-color="#00124b"/></linearGradient><clipPath id="c"><path class="a" d="M429.528-1030.223l-15.872,3.273v47.085l-24.23-44.1-26.215,58.375v-.629a5.484,5.484,0,0,0-6.92-5.534h0L338.07-968v-14.046l13.506-2.786a7.587,7.587,0,0,0,4.433-2.793h0a7.58,7.58,0,0,0,1.8-4.837h0v-1.671l-19.744,4.072v-13.29l18.163-3.747a8.779,8.779,0,0,0,6.773-8.208h0v-1.2l-33.245,6.856v51.379l42.384-8.671,17.21-38.5,17.281,31.385,22.892-4.79a34.12,34.12,0,0,0,13.484-6.032h0a34.142,34.142,0,0,0,9.755-11.166h0a29.191,29.191,0,0,0,3.631-14.136h0a21.775,21.775,0,0,0-3.442-12.338h0a18.29,18.29,0,0,0-9.589-7.232h0a23.051,23.051,0,0,0-7.428-1.164h0a31.761,31.761,0,0,0-6.411.689m-7.563,9.643,7.289-1.5a18.9,18.9,0,0,1,9.931.257h0a12.043,12.043,0,0,1,6.423,4.943h0a15.66,15.66,0,0,1,2.276,8.6h0a20.61,20.61,0,0,1-2.3,9.565h0a21.911,21.911,0,0,1-6.486,7.542h0a24.557,24.557,0,0,1-9.773,4.293h0l-7.358,1.517Z"/></clipPath><linearGradient id="d" x1="0.793" y1="0.26" x2="0.907" y2="0.26" xlink:href="#b"/><clipPath id="e"><path class="a" d="M380.758-980.467l-8.613,13.526,17.281-17.069,17.21,9.956-8.657-10.017-8.553-10Z"/></clipPath><linearGradient id="f" x1="0.187" y1="0.09" x2="0.204" y2="0.09" gradientUnits="objectBoundingBox"><stop offset="0" stop-color="#00127e"/><stop offset="0.1" stop-color="#0055b3"/><stop offset="0.2" stop-color="#00379b"/><stop offset="0.3" stop-color="#00258d"/><stop offset="0.4" stop-color="#001b85"/><stop offset="0.5" stop-color="#001681"/><stop offset="0.6" stop-color="#00147f"/><stop offset="0.7" stop-color="#00137f"/><stop offset="0.8" stop-color="#00137f"/><stop offset="0.9" stop-color="#00137f"/><stop offset="1" stop-color="#00127e"/></linearGradient><clipPath id="g"><path class="a" d="M404.4-969.45l-11.929,2.392v41.145l6.643-6.538v-12.842c1.937-.3,5.415-.956,5.415-.956h0l0-.005h0c.06-.009.116-.013.177-.024h0l.058-.011a17.912,17.912,0,0,0,6.83-2.92h0a14.318,14.318,0,0,0,4.392-4.969h0a13.051,13.051,0,0,0,1.5-6.084h0a10.408,10.408,0,0,0-1.442-5.492h0a8.285,8.285,0,0,0-4.6-3.531h0a11.129,11.129,0,0,0-3.55-.54h0a17.824,17.824,0,0,0-3.487.375m-5.286,7.679,5.671-1.138a12.273,12.273,0,0,1,2.378-.269h0a3.607,3.607,0,0,1,2.327.616h0a3.713,3.713,0,0,1,1.259,3.073h0a5.964,5.964,0,0,1-.681,2.726h0a7.039,7.039,0,0,1-2.189,2.458h0a9.866,9.866,0,0,1-3.932,1.606h0l-3.852.774c-.19.037-.588.087-.981.131h0Z"/></clipPath><linearGradient id="h" x1="0.176" y1="0.461" x2="0.195" y2="0.461" gradientUnits="objectBoundingBox"><stop offset="0" stop-color="#00cab8"/><stop offset="0.1" stop-color="#00d7b7"/><stop offset="0.2" stop-color="#00dfb6"/><stop offset="0.3" stop-color="#00e4b6"/><stop offset="0.4" stop-color="#00e7b6"/><stop offset="0.5" stop-color="#00e8b6"/><stop offset="0.6" stop-color="#00e9b6"/><stop offset="0.7" stop-color="#00e9b6"/><stop offset="0.8" stop-color="#00e9b6"/><stop offset="0.9" stop-color="#00e9b6"/><stop offset="1" stop-color="#00e9b6"/></linearGradient><clipPath id="i"><path class="a" d="M389.355-1005.439l17.281,31.385,9.16-1.917-26.37-48Z"/></clipPath><linearGradient id="j" x1="0.151" y1="0.504" x2="0.189" y2="0.504" xlink:href="#h"/></defs><g transform="translate(-260.695 -16.568)"><g class="b" transform="translate(-36 1047.48)"><g transform="translate(333.029 -840.402) rotate(-100.008)"><path class="c" d="M291.11-286.8-55.071,1674.887l-1060.848-187.208,346.18-1961.689Z"/></g></g><g class="d" transform="translate(-36 1047.48)"><g transform="translate(416.083 -855.059) rotate(-100.008)"><path class="e" d="M291.11-371.14-55.071,1590.549-1115.919,1403.34l346.18-1961.689Z"/></g></g><g transform="translate(-36 1047.48)"><g transform="translate(389.426 -1023.967)"><path class="f" d="M0,0-26.452,58.9l9.171-1.877,17.21-38.5L17.21,49.913,26.37,48Z"/></g></g><g class="g" transform="translate(-36 1047.48)"><g transform="translate(372.145 -980.508)"><path class="h" d="M-372.145-96.732h1992V980.508h-1992Z"/></g></g><g class="i" transform="translate(-36 1047.48)"><g transform="translate(387.008 -955.866) rotate(28.689)"><path class="j" d="M-397.764,79.314,1349.688-876.969,1866.829,68.024,119.378,1024.307Z"/></g></g><g class="k" transform="translate(-36 1047.48)"><g transform="translate(378.785 -1014.203) rotate(38.287)"><path class="l" d="M-336.372,185.217,1227.181-1049.03l667.46,845.543L331.088,1030.76Z"/></g></g><g transform="translate(336.537 120.37)"><path class="f" d="M0,0A9.857,9.857,0,0,1-6.9-2.491c-2.431-2.231-3.663-5.582-3.663-9.96V-33.832l6.644-1.323v21.9c0,2.8.588,4.692,1.747,5.618a4.753,4.753,0,0,0,3.09.975h0a9.438,9.438,0,0,0,1.849-.2A8.21,8.21,0,0,0,8.021-9.988a10.7,10.7,0,0,0,1.864-6.518V-39.184l6.644-6.58V-17.4a17.964,17.964,0,0,1-3.47,11.257A15.764,15.764,0,0,1,3.333-.354,17.062,17.062,0,0,1,0,0"/></g></g></svg>